<?xml version="1.0" encoding="utf-8"?>
<!-- Generator: Adobe Illustrator 26.0.1, SVG Export Plug-In . SVG Version: 6.00 Build 0)  -->
<svg version="1.1" id="Слой_1" xmlns="http://www.w3.org/2000/svg" xmlns:xlink="http://www.w3.org/1999/xlink" x="0px" y="0px"
	 viewBox="0 0 1454.9 1205.7" style="enable-background:new 0 0 1454.9 1205.7;" xml:space="preserve">
<style type="text/css">
	.st0{clip-path:url(#SVGID_00000171722139357547511400000012352070839352209337_);}
	.st1{clip-path:url(#SVGID_00000168101887636240113200000000356053606906835127_);}
	.st2{clip-path:url(#SVGID_00000033330952587019905440000014797099948709972149_);}
	.st3{clip-path:url(#SVGID_00000062878140492243250860000004551336872871783601_);}
	.st4{clip-path:url(#SVGID_00000005248987158536549740000015663773689583467710_);}
</style>
<g>
	<defs>
		<path id="SVGID_1_" d="M1376.1,1009.3c-46.6-17.6-54.3-53.1-52.4-87c1.9-33.9,41.1-77.5,105.4-40.7
			C1493.5,918.4,1422.7,1026.9,1376.1,1009.3z M210.3,169.2C195.5,107.3,232.5,83,275,70.6c42.5-12.4,125.6,14.3,130.9,105.1
			C411.2,266.5,225.1,231.1,210.3,169.2z M180.5,1195.3c-99.8,27.7-145.6-4.8-164-41c-52.8-103.7,30.5-295.9,116.8-314
			c86.3-18.1,210.7-9.8,262.2,91.8C446.9,1033.8,317.7,1157.2,180.5,1195.3z M1042.3,1010.1c-185.9,87.2-491,48.4-619.8-110.9
			C248.2,683.6,200,426.6,415.8,212.9C525.6,104.3,755.1-27.6,1020.7,5.1c265.5,32.7,304.7,246.9,311.7,422.4
			C1338.7,583.4,1295.5,891.4,1042.3,1010.1z"/>
	</defs>
	<clipPath id="SVGID_00000012472464634191145100000015893137687830152354_">
		<use xlink:href="#SVGID_1_"  style="overflow:visible;"/>
	</clipPath>
	<g style="clip-path:url(#SVGID_00000012472464634191145100000015893137687830152354_);">
		<defs>
			<rect id="SVGID_00000127037516880628409440000000791779498921626259_" x="-23" y="-210.3" width="1500" height="1500"/>
		</defs>
		<clipPath id="SVGID_00000089535893133527762620000006631025846917422764_">
			<use xlink:href="#SVGID_00000127037516880628409440000000791779498921626259_"  style="overflow:visible;"/>
		</clipPath>
		<g style="clip-path:url(#SVGID_00000089535893133527762620000006631025846917422764_);">
			
				<image style="overflow:visible;" width="1500" height="1500" xlink:href="B5984847.jpg"  transform="matrix(1 0 0 1 -23.0091 -210.2671)">
			</image>
		</g>
	</g>
</g>
<g>
	<defs>
		<path id="SVGID_00000106847566818289312370000017912350098558398388_" d="M1222.1,604.2c-88.9,26.6-163.9,132.7-117.2,211.9
			c46.6,79.1,194.9,96.9,233.1-8C1376.2,703.2,1342,568.3,1222.1,604.2z"/>
	</defs>
	<clipPath id="SVGID_00000081633230687295767120000012583465176695357063_">
		<use xlink:href="#SVGID_00000106847566818289312370000017912350098558398388_"  style="overflow:visible;"/>
	</clipPath>
	<g style="clip-path:url(#SVGID_00000081633230687295767120000012583465176695357063_);">
		<defs>
			<rect id="SVGID_00000012446950280840514300000005530147920995360177_" x="-23" y="-210.3" width="1500" height="1500"/>
		</defs>
		<clipPath id="SVGID_00000077291303585431179920000015925857312485856900_">
			<use xlink:href="#SVGID_00000012446950280840514300000005530147920995360177_"  style="overflow:visible;"/>
		</clipPath>
		<g style="clip-path:url(#SVGID_00000077291303585431179920000015925857312485856900_);">
			
				<image style="overflow:visible;" width="1500" height="1500" xlink:href="B5984845.jpg"  transform="matrix(1 0 0 1 -23.0091 -210.2671)">
			</image>
		</g>
	</g>
</g>
<g>
	<defs>
		<path id="SVGID_00000109742515170572665320000015001319297674156717_" d="M419.5,434.8l-1.8,3l67.5,41.1l-39.3,64.5l-64.5-39.3
			l41.1-67.5L419.5,434.8l-1.8,3L419.5,434.8l-3-1.8l-42.9,70.5c-1,1.7-0.5,3.8,1.2,4.8l70.5,42.9c0.8,0.5,1.8,0.6,2.6,0.4
			c0.9-0.2,1.7-0.8,2.2-1.6l42.9-70.5c1-1.7,0.5-3.8-1.2-4.8l-70.5-42.9c-0.8-0.5-1.8-0.6-2.6-0.4c-0.9,0.2-1.7,0.8-2.2,1.6
			L419.5,434.8z"/>
	</defs>
	<clipPath id="SVGID_00000097485881613138313360000016981435121062498972_">
		<use xlink:href="#SVGID_00000109742515170572665320000015001319297674156717_"  style="overflow:visible;"/>
	</clipPath>
	<g style="clip-path:url(#SVGID_00000097485881613138313360000016981435121062498972_);">
		<defs>
			<path id="SVGID_00000080207749484789502280000012770158664089777314_" d="M1376.1,1009.3c-46.6-17.6-54.3-53.1-52.4-87
				c1.9-33.9,41.1-77.5,105.4-40.7C1493.5,918.4,1422.7,1026.9,1376.1,1009.3z M210.3,169.2C195.5,107.3,232.5,83,275,70.6
				c42.5-12.4,125.6,14.3,130.9,105.1C411.2,266.5,225.1,231.1,210.3,169.2z M180.5,1195.3c-99.8,27.7-145.6-4.8-164-41
				c-52.8-103.7,30.5-295.9,116.8-314c86.3-18.1,210.7-9.8,262.2,91.8C446.9,1033.8,317.7,1157.2,180.5,1195.3z M1042.3,1010.1
				c-185.9,87.2-491,48.4-619.8-110.9C248.2,683.6,200,426.6,415.8,212.9C525.6,104.3,755.1-27.6,1020.7,5.1
				c265.5,32.7,304.7,246.9,311.7,422.4C1338.7,583.4,1295.5,891.4,1042.3,1010.1z"/>
		</defs>
		<clipPath id="SVGID_00000164501879679492783580000006450711648991287990_">
			<use xlink:href="#SVGID_00000080207749484789502280000012770158664089777314_"  style="overflow:visible;"/>
		</clipPath>
		<g style="clip-path:url(#SVGID_00000164501879679492783580000006450711648991287990_);">
			<defs>
				<rect id="SVGID_00000081643130730652929710000011897652854556090752_" x="-23" y="-210.3" width="1500" height="1500"/>
			</defs>
			<clipPath id="SVGID_00000085227174224452891960000005731352000744059299_">
				<use xlink:href="#SVGID_00000081643130730652929710000011897652854556090752_"  style="overflow:visible;"/>
			</clipPath>
			<g style="clip-path:url(#SVGID_00000085227174224452891960000005731352000744059299_);">
				
					<image style="overflow:visible;" width="1500" height="1500" xlink:href="B598484B.jpg"  transform="matrix(1 0 0 1 -23.0091 -210.2671)">
				</image>
			</g>
		</g>
	</g>
</g>
<g>
	<defs>
		<path id="SVGID_00000002360739963312832720000004510281896030773929_" d="M1092.5,127c-160.3-39.4-340.2,85.2-417,241.2
			C595,531.8,778.5,664.3,891.3,672c112.9,7.7,263.7-68.6,289.1-214.5C1204.3,320.4,1202.8,154.1,1092.5,127z"/>
	</defs>
	<clipPath id="SVGID_00000033329418567834361040000018006746684178548926_">
		<use xlink:href="#SVGID_00000002360739963312832720000004510281896030773929_"  style="overflow:visible;"/>
	</clipPath>
	<g style="clip-path:url(#SVGID_00000033329418567834361040000018006746684178548926_);">
		<defs>
			<rect id="SVGID_00000033333520767516465750000009764728530339684517_" x="-23" y="-210.3" width="1500" height="1500"/>
		</defs>
		<clipPath id="SVGID_00000153666190767783758320000017821880318484840323_">
			<use xlink:href="#SVGID_00000033333520767516465750000009764728530339684517_"  style="overflow:visible;"/>
		</clipPath>
		<g style="clip-path:url(#SVGID_00000153666190767783758320000017821880318484840323_);">
			
				<image style="overflow:visible;" width="1500" height="1500" xlink:href="B598484D.jpg"  transform="matrix(1 0 0 1 -23.0091 -210.2671)">
			</image>
		</g>
	</g>
</g>
</svg>
